<svg width="70" height="14" viewBox="0 0 70 14" fill="none" xmlns="http://www.w3.org/2000/svg">
<path d="M5.33333 0L6.98133 3.29127L10.6667 3.82229L8 6.38275L8.62933 10L5.33333 8.29127L2.03733 10L2.66667 6.38275L0 3.82229L3.68533 3.29127L5.33333 0Z" fill="#FFA400"/>
<path d="M20 0L21.648 3.29127L25.3333 3.82229L22.6667 6.38275L23.296 10L20 8.29127L16.704 10L17.3333 6.38275L14.6667 3.82229L18.352 3.29127L20 0Z" fill="#FFA400"/>
<path d="M34.6667 0L36.3147 3.29127L40 3.82229L37.3333 6.38275L37.9627 10L34.6667 8.29127L31.3707 10L32 6.38275L29.3333 3.82229L33.0187 3.29127L34.6667 0Z" fill="#FFA400"/>
<path d="M49.3333 0L50.9813 3.29127L54.6667 3.82229L52 6.38275L52.6293 10L49.3333 8.29127L46.0373 10L46.6667 6.38275L44 3.82229L47.6853 3.29127L49.3333 0Z" fill="#FFA400"/>
<path d="M64 0L65.648 3.29127L69.3333 3.82229L66.6667 6.38275L67.296 10L64 8.29127L60.704 10L61.3333 6.38275L58.6667 3.82229L62.352 3.29127L64 0Z" fill="#C4C4C4"/>
<path d="M64 8.29127V0L62.352 3.29127L58.6667 3.82229L61.3333 6.38275L60.704 10L64 8.29127Z" fill="#FFA400"/>
</svg>
