<svg width="131" height="31" viewBox="0 0 131 31" fill="none" xmlns="http://www.w3.org/2000/svg">
<path d="M30.1868 12.6383C30.0633 11.8554 29.873 11.0844 29.6179 10.3336C29.1017 8.78782 28.3335 7.33665 27.344 6.03799C26.3153 4.68938 25.0727 3.51572 23.665 2.56287C22.3023 1.64793 20.7974 0.961723 19.2105 0.531699C17.5632 0.085608 15.8519 -0.0816397 14.1486 0.0369772C12.3989 0.167952 10.6838 0.589416 9.07449 1.28384C7.57008 1.93748 6.18365 2.83151 4.97027 3.9304C3.76574 5.01504 2.7444 6.28477 1.94526 7.69109C1.13014 9.12375 0.559532 10.6806 0.256593 12.2984C-0.110323 14.2869 -0.083501 16.3273 0.335559 18.3055C0.392253 18.5736 0.459745 18.8371 0.538036 19.0958C0.604854 19.3432 0.700018 19.5865 0.762786 19.8359C1.3134 21.8985 2.31438 23.8155 3.69466 25.4508C5.04485 27.0586 6.71066 28.3764 8.59048 29.3238C10.4703 30.2712 12.5247 30.8283 14.6285 30.9611C16.8867 31.1086 19.1528 30.8358 21.3102 30.1567C23.5133 29.4648 25.5289 28.284 27.2043 26.7037C27.4028 26.5133 27.5951 26.3162 27.7814 26.1124C28.1519 25.7102 28.2127 25.0305 27.7814 24.6383C27.3501 24.2462 26.6941 24.21 26.2972 24.6383C25.9634 25.0018 25.6092 25.3462 25.2363 25.67C25.0662 25.8168 24.89 25.9576 24.7159 26.0984C24.6653 26.1366 24.6146 26.1748 24.562 26.211C24.4689 26.2794 24.3717 26.3477 24.2765 26.4121C23.5121 26.9327 22.6983 27.3779 21.8468 27.7414C20.6115 28.2379 19.3194 28.5817 17.9997 28.765C16.5961 28.9513 15.1747 28.9642 13.7679 28.8032C12.6275 28.6356 11.5118 28.331 10.4453 27.8962C9.83264 27.6336 9.23869 27.3299 8.66751 26.9872C8.3638 26.8049 8.06615 26.6112 7.77459 26.406C7.63488 26.3095 7.49922 26.2049 7.36963 26.1044L7.34128 26.0823L7.11046 25.8952C6.56333 25.4446 6.05035 24.9546 5.57568 24.4292C5.46432 24.3065 5.357 24.1838 5.24969 24.0571L5.09378 23.8681C5.06544 23.8339 4.99862 23.7454 4.9642 23.7012C4.77792 23.4518 4.59569 23.2024 4.42561 22.945C4.01128 22.3109 3.65097 21.6436 3.34843 20.95C3.12722 20.4076 2.9419 19.8513 2.79364 19.2849V19.2849C2.68835 18.8666 2.53649 18.4603 2.43728 18.04C2.33806 17.6197 2.27327 17.2477 2.21455 16.8475C2.07282 15.69 2.07282 14.5197 2.21455 13.3623C2.37684 12.2228 2.67804 11.1072 3.11153 10.04C3.38139 9.42813 3.69467 8.83606 4.049 8.26826C4.23393 7.97063 4.42966 7.67969 4.63618 7.39546L4.78602 7.19435L4.81436 7.15816C4.92573 7.01939 5.03709 6.88264 5.1525 6.74589C5.60921 6.21384 6.10458 5.71577 6.63464 5.25569C6.76017 5.14508 6.88976 5.03849 7.01934 4.93191L7.17525 4.80722L7.13273 4.84141L7.18942 4.79717H7.19955C7.24207 4.76499 7.32711 4.70265 7.27852 4.74086C7.54781 4.53975 7.82723 4.3487 8.1107 4.1677C8.75175 3.75772 9.42477 3.39928 10.1233 3.09581C11.1876 2.66494 12.3006 2.36377 13.4379 2.19887C14.6073 2.05811 15.7896 2.05811 16.959 2.19887C18.0983 2.36444 19.2133 2.66628 20.2796 3.09782C20.8904 3.35957 21.4818 3.66401 22.0493 4.00883C22.3509 4.19184 22.6445 4.38691 22.9321 4.59003L23.1528 4.75292L23.1669 4.76298C23.3087 4.87359 23.4484 4.98621 23.5881 5.10084C24.125 5.55231 24.6278 6.04231 25.0925 6.5669C25.2018 6.6936 25.3112 6.8203 25.4185 6.949L25.544 7.10587C25.5136 7.06565 25.5278 7.08375 25.544 7.10587L25.5825 7.15413L25.6392 7.22452L25.5643 7.13201C25.5825 7.15413 25.6007 7.17827 25.6129 7.19637C25.8261 7.47657 26.0286 7.76416 26.2203 8.05911C26.6283 8.69662 26.9838 9.36579 27.2833 10.0601C27.719 11.1208 28.0223 12.2304 28.1864 13.3643C28.2555 13.8864 28.2913 14.4124 28.2937 14.939V14.9551C28.297 15.2681 28.2808 15.5811 28.2451 15.8922C28.1608 16.4303 28.0154 16.9572 27.8118 17.4628C27.6332 17.8556 27.4197 18.2318 27.174 18.587C27.1436 18.6333 27.1092 18.6755 27.0768 18.7198C27.0444 18.764 27.0424 18.7721 27.0262 18.7922L26.9958 18.8324L27.016 18.8042C26.9796 18.8485 26.9431 18.8927 26.9047 18.9349C26.7689 19.0956 26.6249 19.2493 26.4734 19.3955C26.3236 19.5423 26.1656 19.6811 26.0036 19.8138L25.8842 19.9083L25.9227 19.8781C25.8336 19.9425 25.7424 20.0048 25.6513 20.0652C25.3302 20.277 24.9915 20.4614 24.6389 20.6162C24.1499 20.8053 23.6413 20.9402 23.1224 21.0184C22.5982 21.0757 22.0693 21.0757 21.5451 21.0184C21.0234 20.9409 20.5121 20.806 20.0204 20.6162C19.9415 20.58 19.8625 20.5458 19.7856 20.5076L20.8951 18.7137C21.0474 18.5436 21.1469 18.3334 21.1816 18.1084C21.2164 17.8834 21.1849 17.6532 21.091 17.4456C20.997 17.2379 20.8447 17.0617 20.6522 16.9381C20.4598 16.8145 20.2354 16.7488 20.0063 16.7489C19.8139 16.7502 19.6247 16.7979 19.4551 16.888C19.2854 16.978 19.1403 17.1077 19.0323 17.2658C18.8887 17.0579 18.6818 16.9011 18.4419 16.8184C18.2021 16.7358 17.9419 16.7316 17.6995 16.8064C17.457 16.8813 17.2451 17.0313 17.0947 17.2345C16.9444 17.4376 16.8634 17.6833 16.8638 17.9354C16.8656 18.1215 16.9106 18.3045 16.9954 18.4704V18.4704L18.0503 20.4151C17.9147 20.4875 17.775 20.5539 17.6454 20.6162C17.1615 20.8041 16.6584 20.939 16.145 21.0184C15.6067 21.0779 15.0635 21.0779 14.5252 21.0184C13.9886 20.94 13.4628 20.801 12.958 20.6041C12.6629 20.4726 12.3773 20.3208 12.1036 20.1496C11.9537 20.0551 11.8059 19.9485 11.6622 19.848L11.5974 19.7957C11.5245 19.7374 11.4536 19.677 11.3949 19.6167C11.1168 19.3692 10.8589 19.1002 10.6234 18.8123L10.585 18.766L10.4372 18.5649C10.3926 18.5006 10.3501 18.4362 10.3076 18.3638C10.2489 18.221 10.1942 18.0742 10.1456 17.9254C10.0469 17.6281 9.96908 17.3244 9.91275 17.0164C9.8575 16.7206 9.82098 16.4218 9.80341 16.1215V16.1215C9.69709 14.9555 9.8686 13.781 10.3041 12.693C10.7395 11.6051 11.4267 10.6342 12.3101 9.85901C12.4316 9.9294 12.549 10.0058 12.6604 10.0843C12.6664 10.0835 12.6725 10.0835 12.6786 10.0843C13.1666 10.4233 13.5931 10.8422 13.94 11.3231C14.3011 11.1007 14.6804 10.9089 15.0739 10.7499C15.5488 10.5618 16.0412 10.4204 16.5439 10.3276C17.2748 10.1957 18.0214 10.1733 18.759 10.2612H18.7873C18.882 10.2695 18.9774 10.2648 19.0708 10.2471C19.3102 10.2054 19.5261 10.0784 19.6782 9.89003C19.8302 9.70164 19.908 9.46471 19.8969 9.22352C19.8952 9.18101 19.8905 9.13867 19.8827 9.09682C19.846 8.90601 19.7534 8.73019 19.6165 8.5914C19.4797 8.4526 19.3046 8.35699 19.1133 8.31653C19.0779 8.30921 19.0421 8.30383 19.006 8.30044C17.3206 8.0335 15.5936 8.32315 14.0899 9.12498V9.12498L14.0413 9.15112C14.0413 9.15112 14.0413 9.15112 14.0291 9.13503C13.9461 9.03649 13.8631 8.93393 13.776 8.84745C13.0645 8.06266 12.1823 7.44918 11.1965 7.05358C9.91429 8.36902 8.94152 9.95031 8.3481 11.6837C7.75468 13.4172 7.55536 15.2597 7.76446 17.0787C7.79281 17.312 7.82723 17.5453 7.86975 17.7806C7.93138 18.0877 8.01253 18.3907 8.11272 18.6876V18.6876C8.13904 18.768 8.16942 18.8465 8.19979 18.9249V18.937C8.19979 18.9571 8.21396 18.9792 8.22409 19.0013C8.24052 19.0407 8.25945 19.079 8.28078 19.1159C9.05178 20.4454 10.1872 21.5299 11.5548 22.2431C13.0913 23.0234 14.8357 23.3048 16.5419 23.0476C17.3359 22.9369 18.1078 22.7042 18.8299 22.3578C20.7341 23.2745 22.9256 23.4082 24.9285 22.7298C26.9124 22.0419 28.5529 20.6208 29.5085 18.762C30.0558 17.6714 30.3557 16.4749 30.3873 15.2567C30.3873 15.2406 30.3873 15.2265 30.3873 15.2084C30.3995 14.3475 30.3324 13.4872 30.1868 12.6383V12.6383ZM24.6997 26.1124C24.9022 25.9455 24.7645 26.0642 24.6997 26.1124V26.1124ZM7.44455 26.1828C7.42108 26.1677 7.39874 26.1509 7.37773 26.1325L7.44455 26.1828ZM23.169 4.767C23.2012 4.78549 23.2305 4.80852 23.256 4.83538L23.169 4.767Z" fill="#005EB8"/>
<path d="M52.3611 15.781C52.3611 13.0413 50.1821 10.7998 47.4947 10.7998C46.0421 10.7998 44.7347 11.4474 43.8389 12.5183C42.9431 11.4474 41.6357 10.7998 40.183 10.7998C37.4956 10.7998 35.3167 13.0413 35.3167 15.781V22.0572C35.3167 22.7545 35.8493 23.3025 36.5272 23.3025C37.1809 23.3025 37.7135 22.7545 37.7135 22.0572V15.781C37.7135 14.3863 38.8272 13.2655 40.183 13.2655C41.5389 13.2655 42.6283 14.3863 42.6283 15.781V22.0572C42.6283 22.7545 43.1852 23.3025 43.8389 23.3025C44.4926 23.3025 45.0252 22.7545 45.0252 22.0572V15.781C45.0252 14.3863 46.1389 13.2655 47.4947 13.2655C48.8505 13.2655 49.9642 14.3863 49.9642 15.781C49.9642 15.8308 49.9642 15.8557 49.9642 15.8806C49.9642 15.9304 49.9642 15.9553 49.9642 16.0051V22.0572C49.9642 22.7545 50.4969 23.3025 51.1506 23.3025C51.8043 23.3025 52.3611 22.7545 52.3611 22.0572V16.0051C52.3611 15.9553 52.3611 15.9304 52.3369 15.8806C52.3611 15.8557 52.3611 15.8308 52.3611 15.781Z" fill="#005EB8"/>
<path d="M59.8686 10.75C56.5033 10.75 53.7916 13.5395 53.7916 17.0013C53.7916 20.4383 56.5033 23.2527 59.8686 23.2527C60.7644 23.2527 61.9991 23.2776 63.5971 22.1817C64.1539 21.8081 64.4687 21.1606 64.1781 20.5379C63.8876 19.9402 63.1371 19.5915 62.5802 19.9651C61.4181 20.7372 60.4254 20.787 59.8686 20.787C58.2465 20.787 56.8906 19.7161 56.3822 18.2217H64.735C65.4129 18.2217 65.9455 17.6738 65.9455 17.0013C65.9455 12.9417 62.7981 10.75 59.8686 10.75ZM59.8686 13.2157C61.3212 13.2157 62.8707 14.0127 63.3792 15.7561H56.3822C56.8906 14.2866 58.2465 13.2157 59.8686 13.2157Z" fill="#005EB8"/>
<path d="M76.0436 10.7749C75.3656 10.7749 74.833 11.3229 74.833 11.9953V18.2217C74.833 19.6413 73.7193 20.8119 72.3151 20.8119C70.9351 20.8119 69.8213 19.6413 69.8213 18.2217V11.9953C69.8213 11.3229 69.2887 10.7749 68.6108 10.7749C67.9571 10.7749 67.4245 11.3229 67.4245 11.9953V18.2715C67.4487 21.0361 69.6277 23.2776 72.3151 23.2776C75.0267 23.2776 77.2057 21.0361 77.2299 18.2715V11.9953C77.2299 11.3229 76.6972 10.7749 76.0436 10.7749Z" fill="#005EB8"/>
<path d="M92.298 10.7002C90.9179 10.7002 89.6348 11.1734 88.6179 11.9704V5.7689C88.6179 5.09645 88.0853 4.54852 87.4316 4.54852C86.7537 4.54852 86.221 5.09645 86.221 5.7689V16.9515C86.221 20.3885 88.9569 23.2028 92.298 23.2028C95.6633 23.2028 98.3749 20.3885 98.3749 16.9515C98.3749 13.4896 95.6633 10.7002 92.298 10.7002ZM92.298 20.7372C90.2642 20.7372 88.6179 19.0436 88.6179 16.9515V16.9266C88.6179 14.8595 90.2642 13.1659 92.298 13.1659C94.3317 13.1659 95.978 14.8595 95.978 16.9515C95.978 19.0187 94.3317 20.7372 92.298 20.7372Z" fill="#005EB8"/>
<path d="M100.979 23.2776C101.633 23.2776 102.166 22.7296 102.166 22.0323V11.9953C102.166 11.3229 101.633 10.7749 100.979 10.7749C100.301 10.7749 99.7687 11.3229 99.7687 11.9953V22.0323C99.7687 22.7296 100.301 23.2776 100.979 23.2776ZM100.979 8.28437C101.294 8.28437 101.609 8.15984 101.827 7.93569C102.045 7.71154 102.166 7.38777 102.166 7.06399C102.166 6.74022 102.045 6.41645 101.827 6.19229C101.609 5.96815 101.294 5.81871 100.979 5.81871C100.665 5.81871 100.35 5.96815 100.132 6.19229C99.914 6.41645 99.7687 6.74022 99.7687 7.06399C99.7687 7.38777 99.914 7.71154 100.132 7.93569C100.35 8.15984 100.665 8.28437 100.979 8.28437Z" fill="#005EB8"/>
<path d="M110.143 17.0013L113.338 12.7425C113.75 12.1946 113.653 11.4225 113.12 10.9991C112.612 10.5757 111.862 10.6753 111.45 11.2232L108.617 14.984L105.785 11.2232C105.373 10.6753 104.622 10.5757 104.114 10.9991C103.581 11.4225 103.485 12.1946 103.896 12.7425L107.092 17.0013L103.896 21.2602C103.485 21.8081 103.581 22.5802 104.114 22.9787C104.332 23.153 104.574 23.2527 104.84 23.2527C105.204 23.2527 105.542 23.0783 105.785 22.7795L108.617 19.0187L111.45 22.7795C111.692 23.0783 112.031 23.2527 112.394 23.2527C112.66 23.2527 112.903 23.153 113.12 22.9787C113.653 22.5802 113.75 21.8081 113.338 21.2602L110.143 17.0013Z" fill="#005EB8"/>
<path d="M116.277 23.2776C116.93 23.2776 117.463 22.7296 117.463 22.0323V11.9953C117.463 11.3229 116.93 10.7749 116.277 10.7749C115.599 10.7749 115.066 11.3229 115.066 11.9953V22.0323C115.066 22.7296 115.599 23.2776 116.277 23.2776ZM116.277 8.28437C116.591 8.28437 116.906 8.15984 117.124 7.93569C117.342 7.71154 117.463 7.38777 117.463 7.06399C117.463 6.74022 117.342 6.41645 117.124 6.19229C116.906 5.96815 116.591 5.81871 116.277 5.81871C115.962 5.81871 115.647 5.96815 115.429 6.19229C115.211 6.41645 115.066 6.74022 115.066 7.06399C115.066 7.38777 115.211 7.71154 115.429 7.93569C115.647 8.15984 115.962 8.28437 116.277 8.28437Z" fill="#005EB8"/>
<path d="M124.923 10.75C121.582 10.75 118.846 13.5395 118.846 17.0013V22.0074C118.846 22.7047 119.379 23.2527 120.032 23.2527C120.71 23.2527 121.243 22.7047 121.243 22.0074V17.0013C121.243 14.9093 122.889 13.2157 124.923 13.2157C126.957 13.2157 128.603 14.9093 128.603 17.0013V22.0074C128.603 22.7047 129.136 23.2527 129.789 23.2527C130.467 23.2527 131 22.7047 131 22.0074V17.0013C131 13.5395 128.264 10.75 124.923 10.75Z" fill="#005EB8"/>
</svg>
